# File created by Blade
# Date/Time:  Wed Jan 21 15:15:34 2015
#---------------------------------------------------------
:version 1.10
:name HOM
:units
  mass 1.0
  length 1.000000
  angle deg
:documentation
     Acclaim Skeleton File
:root
   axis xyz
   order TX TY TZ RX RY RZ
   position 0.000000 0.000000 0.000000
   orientation 0 0 0
:bonedata
   begin
      id 1
      name Spine_dum
      direction 0.000000 1.000000 0.000000
      length 7.067664
      axis 0.0 0.0 0.0 xyz
   end
   begin
      id 2
      name LeftUpLeg_dum
      direction 1.000000 0.000000 0.000000
      length 4.013002
      axis 0.0 0.0 0.0 xyz
   end
   begin
      id 3
      name RightUpLeg_dum
      direction -1.000000 0.000000 0.000000
      length 4.013002
      axis 0.0 0.0 0.0 xyz
   end
   begin
      id 4
      name Spine
      direction 0.000000 1.000000 0.000000
      length 0.000000
      axis 0.0 0.0 0.0 xyz
      dof rx ry rz
   end
   begin
      id 5
      name Spine_dum1
      direction 0.000000 1.000000 0.000000
      length 15.039886
      axis 0.0 0.0 0.0 xyz
   end
   begin
      id 6
      name Spine_dum2
      direction 0.000000 1.000000 0.000000
      length 10.530368
      axis 0.0 0.0 0.0 xyz
   end
   begin
      id 7
      name Spine_dum3
      direction 0.000000 1.000000 0.000000
      length 10.530368
      axis 0.0 0.0 0.0 xyz
   end
   begin
      id 8
      name Head
      direction 0.000000 1.000000 0.000000
      length 4.527550
      axis 0.0 0.0 0.0 xyz
      dof rx ry rz
   end
   begin
      id 9
      name LeftShoulder
      direction 1.000000 0.000000 0.000000
      length 7.028855
      axis 0.0 0.0 -90.0 xyz
      dof rx ry rz
   end
   begin
      id 10
      name LeftArm
      direction 1.000000 0.000000 0.000000
      length 10.797705
      axis 0.0 0.0 -90.0 xyz
      dof rx ry rz
   end
   begin
      id 11
      name LeftForeArm
      direction 1.000000 0.000000 0.000000
      length 7.907442
      axis 0.0 0.0 -90.0 xyz
      dof ry rz rx
   end
   begin
      id 12
      name LeftHand
      direction 0.000000 0.000000 0.000000
      length 0.000000
      axis 0.0 0.0 -90.0 xyz
      dof rx ry rz
   end
   begin
      id 13
      name LeftHand_dum1
      direction 0.000000 0.000000 0.000000
      length 0.000000
      axis 0.0 0.0 -90.0 xyz
   end
   begin
      id 14
      name LeftHand_dum2
      direction 1.000000 0.000000 0.000000
      length 3.937000
      axis 0.0 0.0 -90.0 xyz
   end
   begin
      id 15
      name LeftHandThumb1
      direction 0.000000 0.000000 1.000000
      length 3.937000
      axis 0.0 0.0 -90.0 xyz
      dof rx rz ry
   end
   begin
      id 16
      name RightShoulder
      direction -1.000000 0.000000 0.000000
      length 7.028855
      axis 0.0 0.0 90.0 xyz
      dof rx ry rz
   end
   begin
      id 17
      name RightArm
      direction -1.000000 0.000000 0.000000
      length 10.797705
      axis 0.0 0.0 90.0 xyz
      dof rx ry rz
   end
   begin
      id 18
      name RightForeArm
      direction -1.000000 0.000000 0.000000
      length 7.907442
      axis 0.0 0.0 90.0 xyz
      dof ry rz rx
   end
   begin
      id 19
      name RightHand
      direction 0.000000 0.000000 0.000000
      length 0.000000
      axis 0.0 0.0 90.0 xyz
      dof rx ry rz
   end
   begin
      id 20
      name RightHand_dum1
      direction 0.000000 0.000000 0.000000
      length 0.000000
      axis 0.0 0.0 90.0 xyz
   end
   begin
      id 21
      name RightHand_dum2
      direction -1.000000 0.000000 0.000000
      length 3.937000
      axis 0.0 0.0 90.0 xyz
   end
   begin
      id 22
      name RightHandThumb1
      direction 0.000000 0.000000 1.000000
      length 3.937000
      axis 0.0 0.0 90.0 xyz
      dof rx rz ry
   end
   begin
      id 23
      name LeftUpLeg
      direction 0.000000 -1.000000 0.000000
      length 16.899758
      axis 0.0 0.0 0.0 xyz
      dof rx ry rz
   end
   begin
      id 24
      name LeftLeg
      direction 0.000000 -1.000000 0.000000
      length 17.389183
      axis 0.0 0.0 0.0 xyz
      dof rx ry rz
   end
   begin
      id 25
      name LeftFoot
      direction 0.000000 -0.258819 0.965926
      length 4.924528
      axis 15.0 0.0 0.0 xyz
      dof rx ry rz
   end
   begin
      id 26
      name LeftToeBase
      direction 0.000000 0.000000 1.000000
      length 2.952750
      axis 0.0 0.0 0.0 xyz
      dof rx ry rz
   end
   begin
      id 27
      name RightUpLeg
      direction 0.000000 -1.000000 0.000000
      length 16.899758
      axis 0.0 0.0 0.0 xyz
      dof rx ry rz
   end
   begin
      id 28
      name RightLeg
      direction 0.000000 -1.000000 0.000000
      length 17.389183
      axis 0.0 0.0 0.0 xyz
      dof rx ry rz
   end
   begin
      id 29
      name RightFoot
      direction 0.000000 -0.258819 0.965926
      length 4.924528
      axis 15.0 0.0 0.0 xyz
      dof rx ry rz
   end
   begin
      id 30
      name RightToeBase
      direction 0.000000 0.000000 1.000000
      length 2.952750
      axis 0.0 0.0 0.0 xyz
      dof rx ry rz
   end
:hierarchy
   begin
      root Spine_dum LeftUpLeg_dum RightUpLeg_dum
      Spine_dum Spine
      LeftUpLeg_dum LeftUpLeg
      RightUpLeg_dum RightUpLeg
      Spine Spine_dum1 Spine_dum2 Spine_dum3
      Spine_dum1 Head
      Spine_dum2 LeftShoulder
      Spine_dum3 RightShoulder
      LeftShoulder LeftArm
      LeftArm LeftForeArm
      LeftForeArm LeftHand
      LeftHand LeftHand_dum1 LeftHand_dum2
      LeftHand_dum1 LeftHandThumb1
      RightShoulder RightArm
      RightArm RightForeArm
      RightForeArm RightHand
      RightHand RightHand_dum1 RightHand_dum2
      RightHand_dum1 RightHandThumb1
      LeftUpLeg LeftLeg
      LeftLeg LeftFoot
      LeftFoot LeftToeBase
      RightUpLeg RightLeg
      RightLeg RightFoot
      RightFoot RightToeBase
   end

# File created by Blade
# Date/Time:  Wed Jan 21 15:15:22 2015
# Frame Rate: 120.000 fps
#------------------------------------------------------
:FULLY-SPECIFIED
:DEGREES
45
root 16.471969 35.360152 -21.299987 107.350877 -88.251811 -98.251823
Spine -20.646219 -0.644909 2.985918
Head 7.695157 0.528567 -0.202121
LeftShoulder -14.820405 -33.925276 22.342641
LeftArm -0.329280 2.940232 -7.116010
LeftForeArm 12.777795 0.000000 -2.406444
LeftHand -8.015492 0.000000 -7.404102
LeftHandThumb1 -26.253704 0.000000 33.147579
RightShoulder -12.217898 -2.472809 -12.407354
RightArm 6.457041 34.900576 8.990260
RightForeArm -39.457613 -0.000000 4.882632
RightHand -6.040540 -0.000000 12.551584
RightHandThumb1 -24.326973 -0.000000 -32.862282
LeftUpLeg -1.601114 12.561995 4.360700
LeftLeg -5.744949 -0.000000 0.000000
LeftFoot -19.809600 27.098718 -13.128216
LeftToeBase 26.937336 -0.000000 -0.000000
RightUpLeg -2.211363 -9.402731 -1.050388
RightLeg -2.527908 -0.000000 0.000000
RightFoot -20.943959 -22.310454 17.046063
RightToeBase 24.538475 -0.000000 -0.000000
46
root 16.472890 35.360006 -21.300107 107.416904 -88.246267 -98.312672
Spine -20.649864 -0.649529 2.998250
Head 7.698270 0.527465 -0.218864
LeftShoulder -14.838401 -33.914564 22.351296
LeftArm -0.318975 2.937686 -7.125398
LeftForeArm 12.749170 -0.000000 -2.403738
LeftHand -8.022150 -0.000000 -7.367406
LeftHandThumb1 -26.253704 0.000000 33.147579
RightShoulder -12.214286 -2.466230 -12.429362
RightArm 6.448285 34.861157 8.989707
RightForeArm -39.439619 -0.000000 4.892699
RightHand -6.054514 -0.000000 12.546930
RightHandThumb1 -24.326973 -0.000000 -32.862282
LeftUpLeg -1.602470 12.526989 4.365193
LeftLeg -5.761800 -0.000000 0.000000
LeftFoot -19.820452 27.157193 -13.156156
LeftToeBase 26.971788 -0.000000 -0.000000
RightUpLeg -2.222702 -9.407117 -1.043558
RightLeg -2.519726 -0.000000 0.000000
RightFoot -20.949310 -22.291335 17.081223
RightToeBase 24.502754 -0.000000 -0.000000
47
root 16.473734 35.359981 -21.300510 107.459344 -88.246269 -98.354353
Spine -20.649192 -0.650609 2.998631
Head 7.704517 0.527957 -0.224146
LeftShoulder -14.839143 -33.912968 22.348906
LeftArm -0.314575 2.918961 -7.119129
LeftForeArm 12.772805 -0.000000 -2.397045
LeftHand -8.033073 0.000000 -7.366769
LeftHandThumb1 -26.253704 0.000000 33.147579
RightShoulder -12.214049 -2.471435 -12.431594
RightArm 6.439836 34.853942 8.972885
RightForeArm -39.444662 -0.000000 4.890667
RightHand -6.009787 -0.000000 12.573080
RightHandThumb1 -24.326973 -0.000000 -32.862282
LeftUpLeg -1.603365 12.519392 4.365198
LeftLeg -5.763787 -0.000000 0.000000
LeftFoot -19.817626 27.169357 -13.152883
LeftToeBase 26.967156 -0.000000 -0.000000
RightUpLeg -2.221589 -9.416452 -1.042223
RightLeg -2.528165 -0.000000 0.000000
RightFoot -20.942948 -22.291023 17.048840
RightToeBase 24.503868 -0.000000 -0.000000
48
root 16.474302 35.359806 -21.301394 107.738735 -88.243407 -98.634550
Spine -20.642251 -0.647488 2.999792
Head 7.705688 0.540343 -0.225277
LeftShoulder -14.847943 -33.919995 22.351124
LeftArm -0.313134 2.932424 -7.114456
LeftForeArm 12.748095 -0.000000 -2.386380
LeftHand -8.031728 -0.000000 -7.354123
LeftHandThumb1 -26.253704 0.000000 33.147579
RightShoulder -12.210783 -2.479909 -12.433827
RightArm 6.434604 34.880280 8.963914
RightForeArm -39.474014 -0.000000 4.883006
RightHand -6.005331 -0.000000 12.568957
RightHandThumb1 -24.326973 -0.000000 -32.862282
LeftUpLeg -1.605440 12.563429 4.369514
LeftLeg -5.744950 -0.000000 0.000000
LeftFoot -19.805814 27.101219 -13.123745
LeftToeBase 26.921334 -0.000000 -0.000000
RightUpLeg -2.222579 -9.405435 -1.039687
RightLeg -2.521301 -0.000000 0.000000
RightFoot -20.952781 -22.306069 17.102241
RightToeBase 24.421561 -0.000000 -0.000000
49
root 16.474278 35.359354 -21.301825 107.871050 -88.243232 -98.767627
Spine -20.642909 -0.647181 3.000558
Head 7.718100 0.523961 -0.241603
LeftShoulder -14.851890 -33.904911 22.351724
LeftArm -0.308524 2.940744 -7.118918
LeftForeArm 12.758013 -0.000000 -2.379390
LeftHand -8.044460 -0.000000 -7.344957
LeftHandThumb1 -26.253704 0.000000 33.147579
RightShoulder -12.211757 -2.493060 -12.441900
RightArm 6.431060 34.864534 8.956370
RightForeArm -39.428513 -0.000000 4.884951
RightHand -5.998503 -0.000000 12.542637
RightHandThumb1 -24.326973 -0.000000 -32.862282
LeftUpLeg -1.603001 12.550119 4.370749
LeftLeg -5.745787 -0.000000 0.000000
LeftFoot -19.816735 27.117178 -13.131866
LeftToeBase 26.896161 -0.000000 -0.000000
RightUpLeg -2.220507 -9.407960 -1.041351
RightLeg -2.529301 -0.000000 0.000000
RightFoot -20.938521 -22.286616 17.048929
RightToeBase 24.471334 -0.000000 -0.000000
50
root 16.474974 35.359094 -21.302225 108.235540 -88.241424 -99.132039
Spine -20.637098 -0.646785 3.001060
Head 7.716047 0.544475 -0.244252
LeftShoulder -14.865803 -33.910441 22.360919
LeftArm -0.307394 2.953178 -7.118658
LeftForeArm 12.761882 -0.000000 -2.383359
LeftHand -8.047577 -0.000000 -7.339046
LeftHandThumb1 -26.253704 0.000000 33.147579
RightShoulder -12.208982 -2.496981 -12.444758
RightArm 6.422450 34.835975 8.939663
RightForeArm -39.399466 -0.000000 4.878924
RightHand -5.982293 0.000000 12.531574
RightHandThumb1 -24.326973 -0.000000 -32.862282
LeftUpLeg -1.605587 12.560757 4.370351
LeftLeg -5.739342 -0.000000 0.000000
LeftFoot -19.827077 27.111329 -13.132876
LeftToeBase 26.938319 -0.000000 -0.000000
RightUpLeg -2.220561 -9.414692 -1.041091
RightLeg -2.537074 -0.000000 0.000000
RightFoot -20.931755 -22.275780 17.025002
RightToeBase 24.498476 -0.000000 -0.000000
51
root 16.475135 35.358962 -21.302944 108.806258 -88.236718 -99.701443
Spine -20.632231 -0.635848 2.999288
Head 7.714115 0.544078 -0.246134
LeftShoulder -14.886619 -33.918526 22.378941
LeftArm -0.300037 2.969075 -7.127782
LeftForeArm 12.765961 -0.000000 -2.390344
LeftHand -8.042109 0.000000 -7.339477
LeftHandThumb1 -26.253704 0.000000 33.147579
RightShoulder -12.206365 -2.474764 -12.451201
RightArm 6.399938 34.821028 8.923330
RightForeArm -39.395437 -0.000000 4.886615
RightHand -5.977791 -0.000000 12.540370
RightHandThumb1 -24.326973 -0.000000 -32.862282
LeftUpLeg -1.599701 12.568129 4.373215
LeftLeg -5.743744 -0.000000 0.000000
LeftFoot -19.806694 27.123172 -13.102807
LeftToeBase 26.927064 -0.000000 -0.000000
RightUpLeg -2.226755 -9.395585 -1.040469
RightLeg -2.529750 -0.000000 0.000000
RightFoot -20.937141 -22.268593 17.042220
RightToeBase 24.573000 -0.000000 -0.000000
52
root 16.475187 35.358832 -21.303067 109.029616 -88.235168 -99.922810
Spine -20.631453 -0.629923 2.998918
Head 7.718195 0.539847 -0.262222
LeftShoulder -14.902852 -33.912630 22.383919
LeftArm -0.284129 2.984410 -7.136311
LeftForeArm 12.772818 -0.000000 -2.393148
LeftHand -8.047062 -0.000000 -7.329076
LeftHandThumb1 -26.253704 0.000000 33.147579
RightShoulder -12.211436 -2.468580 -12.457375
RightArm 6.397289 34.822956 8.913493
RightForeArm -39.375326 -0.000000 4.873564
RightHand -5.974190 -0.000000 12.515616
RightHandThumb1 -24.326973 -0.000000 -32.862282
LeftUpLeg -1.598941 12.560555 4.373945
LeftLeg -5.746893 -0.000000 0.000000
LeftFoot -19.828924 27.127049 -13.135083
LeftToeBase 26.941418 -0.000000 -0.000000
RightUpLeg -2.226468 -9.392452 -1.041335
RightLeg -2.538383 -0.000000 0.000000
RightFoot -20.928292 -22.266322 17.025527
RightToeBase 24.540667 -0.000000 -0.000000
53
root 16.475904 35.358535 -21.303779 109.515156 -88.230617 -100.406758
Spine -20.629252 -0.630875 3.000962
Head 7.726073 0.558971 -0.259217
LeftShoulder -14.915460 -33.900766 22.384099
LeftArm -0.285979 2.984523 -7.124034
LeftForeArm 12.768194 -0.000000 -2.391527
LeftHand -8.043401 -0.000000 -7.363469
LeftHandThumb1 -26.253704 0.000000 33.147579
RightShoulder -12.207566 -2.470251 -12.456105
RightArm 6.407503 34.830258 8.910956
RightForeArm -39.350984 -0.000000 4.866045
RightHand -6.001116 -0.000000 12.500940
RightHandThumb1 -24.326973 -0.000000 -32.862282
LeftUpLeg -1.596992 12.555931 4.376356
LeftLeg -5.748479 -0.000000 0.000000
LeftFoot -19.830423 27.145774 -13.145759
LeftToeBase 26.891360 -0.000000 -0.000000
RightUpLeg -2.232422 -9.376263 -1.040503
RightLeg -2.537835 -0.000000 0.000000
RightFoot -20.932077 -22.265457 17.027238
RightToeBase 24.489257 -0.000000 -0.000000
54
root 16.476089 35.358543 -21.303281 109.990991 -88.227621 -100.879645
Spine -20.627144 -0.625918 3.006067
Head 7.728869 0.572660 -0.278609
LeftShoulder -14.937033 -33.924743 22.390463
LeftArm -0.288006 3.019243 -7.118605
LeftForeArm 12.764861 -0.000000 -2.393142
LeftHand -8.041116 -0.000000 -7.373937
LeftHandThumb1 -26.253704 0.000000 33.147579
RightShoulder -12.209152 -2.471420 -12.460615
RightArm 6.410086 34.865089 8.909806
RightForeArm -39.374825 -0.000000 4.861498
RightHand -5.992300 -0.000000 12.493490
RightHandThumb1 -24.326973 -0.000000 -32.862282
LeftUpLeg -1.593780 12.526413 4.372849
LeftLeg -5.765190 -0.000000 0.000000
LeftFoot -19.820268 27.207117 -13.145830
LeftToeBase 26.875494 -0.000000 -0.000000
RightUpLeg -2.239524 -9.365510 -1.041941
RightLeg -2.532091 -0.000000 0.000000
RightFoot -20.935040 -22.264238 17.024440
RightToeBase 24.553269 -0.000000 -0.000000
55
root 16.475872 35.358435 -21.303972 110.786956 -88.216846 -101.672669
Spine -20.627216 -0.613454 3.009168
Head 7.737034 0.565663 -0.292195
LeftShoulder -14.959305 -33.898538 22.401988
LeftArm -0.281451 2.986817 -7.124933
LeftForeArm 12.770901 0.000000 -2.398063
LeftHand -8.041809 -0.000000 -7.388869
LeftHandThumb1 -26.253704 0.000000 33.147579
RightShoulder -12.201105 -2.478955 -12.466964
RightArm 6.406180 34.887239 8.916992
RightForeArm -39.356492 -0.000000 4.862473
RightHand -6.013897 -0.000000 12.582487
RightHandThumb1 -24.326973 -0.000000 -32.862282
LeftUpLeg -1.593125 12.580511 4.378611
LeftLeg -5.752132 -0.000000 0.000000
LeftFoot -19.827059 27.159242 -13.123409
LeftToeBase 26.940296 -0.000000 -0.000000
RightUpLeg -2.251111 -9.355781 -1.037185
RightLeg -2.524382 -0.000000 0.000000
RightFoot -20.935423 -22.241149 17.048545
RightToeBase 24.481722 -0.000000 -0.000000
56
root 16.475740 35.358692 -21.303845 111.048203 -88.214958 -101.930703
Spine -20.630394 -0.607716 3.011486
Head 7.754303 0.552051 -0.313110
LeftShoulder -14.960578 -33.895871 22.389212
LeftArm -0.284230 2.996966 -7.115449
LeftForeArm 12.757243 0.000000 -2.402825
LeftHand -8.038268 -0.000000 -7.388834
LeftHandThumb1 -26.253704 0.000000 33.147579
RightShoulder -12.202410 -2.476329 -12.471554
RightArm 6.396392 34.880496 8.906072
RightForeArm -39.334972 -0.000000 4.859400
RightHand -6.022096 -0.000000 12.583791
RightHandThumb1 -24.326973 -0.000000 -32.862282
LeftUpLeg -1.590133 12.533271 4.376874
LeftLeg -5.768044 -0.000000 0.000000
LeftFoot -19.846688 27.234161 -13.176089
LeftToeBase 26.927818 -0.000000 -0.000000
RightUpLeg -2.255243 -9.353169 -1.038187
RightLeg -2.523831 -0.000000 0.000000
RightFoot -20.927654 -22.235291 17.029852
RightToeBase 24.539513 -0.000000 -0.000000
57
root 16.475848 35.358681 -21.304301 111.669681 -88.204490 -102.546267
Spine -20.631293 -0.591638 3.013817
Head 7.757535 0.562387 -0.314230
LeftShoulder -14.978328 -33.893588 22.398250
LeftArm -0.280690 2.977380 -7.119375
LeftForeArm 12.757539 -0.000000 -2.408321
LeftHand -8.044271 0.000000 -7.397715
LeftHandThumb1 -26.253704 0.000000 33.147579
RightShoulder -12.200711 -2.449506 -12.479871
RightArm 6.376147 34.878247 8.897532
RightForeArm -39.351482 -0.000000 4.865130
RightHand -6.022266 -0.000000 12.577546
RightHandThumb1 -24.326973 -0.000000 -32.862282
LeftUpLeg -1.591000 12.536318 4.381865
LeftLeg -5.769723 -0.000000 0.000000
LeftFoot -19.839904 27.258084 -13.153973
LeftToeBase 26.912122 -0.000000 -0.000000
RightUpLeg -2.271315 -9.340205 -1.032555
RightLeg -2.510896 -0.000000 0.000000
RightFoot -20.923350 -22.237614 17.000905
RightToeBase 24.521919 -0.000000 -0.000000
